<?xml version="1.0" encoding="UTF-8"?><svg id="Layer_2" xmlns="http://www.w3.org/2000/svg" viewBox="0 0 91.23 91.23"><defs><style>.cls-1{fill:#fff;stroke-width:0px;}</style></defs><g id="Layer_1-2"><path class="cls-1" d="m45.61,0C20.42,0,0,20.42,0,45.61c0,13.3,5.7,25.27,14.78,33.6,8.12-7.45,18.94-12.01,30.84-12.01s22.72,4.55,30.84,12.01c9.08-8.34,14.78-20.3,14.78-33.6C91.23,20.42,70.8,0,45.61,0Zm0,61.1c-8.55,0-15.49-6.93-15.49-15.49s6.93-15.49,15.49-15.49,15.49,6.93,15.49,15.49-6.93,15.49-15.49,15.49Z"/><path class="cls-1" d="m45.61,79.38c-1.51,0-2.74,1.23-2.74,2.74v9.01c.91.05,1.82.09,2.74.09s1.83-.04,2.74-.09v-9.01c0-1.51-1.23-2.74-2.74-2.74Z"/><path class="cls-1" d="m54.92,74.94c-1.51,0-2.74,1.23-2.74,2.74v13.06c1.87-.27,3.69-.65,5.48-1.14v-11.92c0-1.51-1.23-2.74-2.74-2.74Z"/><path class="cls-1" d="m64.23,80.99c-1.51,0-2.74,1.23-2.74,2.74v4.65c1.89-.7,3.72-1.53,5.48-2.46v-2.19c0-1.51-1.23-2.74-2.74-2.74Z"/><path class="cls-1" d="m36.31,74.94c-1.51,0-2.74,1.23-2.74,2.74v11.92c1.79.49,3.61.87,5.48,1.14v-13.06c0-1.51-1.23-2.74-2.74-2.74Z"/><path class="cls-1" d="m27,80.99c-1.51,0-2.74,1.23-2.74,2.74v2.19c1.76.94,3.59,1.76,5.48,2.46v-4.65c0-1.51-1.23-2.74-2.74-2.74Z"/></g></svg>