<?xml version="1.0" encoding="UTF-8"?><svg id="Layer_2" xmlns="http://www.w3.org/2000/svg" viewBox="0 0 331.81 69.61"><defs><style>.cls-1{stroke-width:0px;}</style></defs><g id="Layer_1-2"><path class="cls-1" d="m26.96.9C12.07.9,0,12.97,0,27.86c0,7.86,3.37,14.93,8.73,19.86,4.8-4.41,11.2-7.1,18.22-7.1s13.43,2.69,18.22,7.1c5.37-4.93,8.73-12,8.73-19.86C53.92,12.97,41.85.9,26.96.9Zm0,36.11c-5.06,0-9.15-4.1-9.15-9.15s4.1-9.15,9.15-9.15,9.15,4.1,9.15,9.15-4.1,9.15-9.15,9.15Z"/><path class="cls-1" d="m26.96,47.81c-.89,0-1.62.73-1.62,1.62v5.33c.54.03,1.08.05,1.62.05s1.08-.02,1.62-.05v-5.33c0-.89-.73-1.62-1.62-1.62Z"/><path class="cls-1" d="m32.46,45.19c-.89,0-1.62.73-1.62,1.62v7.72c1.1-.16,2.18-.39,3.24-.68v-7.05c0-.89-.73-1.62-1.62-1.62Z"/><path class="cls-1" d="m37.96,48.76c-.89,0-1.62.73-1.62,1.62v2.75c1.12-.41,2.2-.9,3.24-1.46v-1.29c0-.89-.73-1.62-1.62-1.62Z"/><path class="cls-1" d="m21.46,45.19c-.89,0-1.62.73-1.62,1.62v7.05c1.06.29,2.14.52,3.24.68v-7.72c0-.89-.73-1.62-1.62-1.62Z"/><path class="cls-1" d="m15.96,48.76c-.89,0-1.62.73-1.62,1.62v1.29c1.04.55,2.12,1.04,3.24,1.46v-2.75c0-.89-.73-1.62-1.62-1.62Z"/><path class="cls-1" d="m58.96,16.67h11.28v3.81c1.79-2.54,5.53-4.63,10.38-4.63,9.19,0,14.49,6.8,14.49,16.58v21.58h-11.28v-19.64c0-5.15-2.02-8.29-6.05-8.29-4.26,0-7.54,3.06-7.54,9.78v18.15h-11.28V16.67Z"/><path class="cls-1" d="m97.94,35.26c0-11.2,8.51-19.42,19.79-19.42s20.39,7.32,19.94,22.1h-28.75c.52,3.81,3.36,7.17,9.41,7.17,3.29,0,6.27-1.49,7.17-3.51h11.8c-2.39,7.77-10.16,13.22-19.56,13.22-11.57,0-19.79-8.21-19.79-19.56Zm11.28-4.48h15.98c-1.19-4.48-4.85-5.97-7.77-5.97-4.48,0-7.24,2.54-8.21,5.97Z"/><path class="cls-1" d="m138.71,36.98h11.87c.75,4.48,4.41,6.94,9.04,6.94,3.96,0,6.87-1.72,6.87-4.7,0-2.46-1.87-4.41-6.95-5.75l-5.15-1.34c-8.44-2.24-14.26-7.62-14.34-15.91-.07-10.01,7.24-16.13,18.22-16.13,11.57,0,18.82,8.44,19.12,16.58h-11.8c-1.2-4.18-4.48-5.6-7.32-5.6-3.44,0-6.2,1.49-6.27,4.33-.07,2.91,2.32,4.63,6.42,5.68l6.05,1.57c8.66,2.24,14.04,7.92,14.04,16.21,0,9.04-7.47,16.06-18.89,16.06-13.14,0-20.46-9.04-20.91-17.92Z"/><path class="cls-1" d="m185.75,40.34v-13.89h-7.47v-9.78h7.47V6.29h11.28v10.38h10.46v9.78h-10.46v11.57c0,4.48,1.87,6.35,6.35,6.35,1.72,0,2.91-.22,4.11-.67v10.01c-1.64.45-3.73.75-6.72.75-8.29,0-15.01-4.63-15.01-14.11Z"/><path class="cls-1" d="m210.39,37.95v-21.28h11.28v19.34c0,5.45,1.57,8.59,5.75,8.59s7.02-2.91,7.02-9.78v-18.15h11.28v37.34h-11.28v-3.81c-1.79,2.61-5.08,4.63-9.93,4.63-9.26,0-14.12-6.72-14.12-16.88Z"/><path class="cls-1" d="m249,35.34c0-10.6,7.54-19.49,17.32-19.49,5,0,8.66,2.54,10.16,4.56V0h11.28v54.01h-11.28v-3.73c-1.49,2.02-5.15,4.56-10.16,4.56-9.78,0-17.32-8.89-17.32-19.49Zm28.38,0c0-5.38-3.44-9.26-8.51-9.26s-8.51,3.88-8.51,9.26,3.44,9.26,8.51,9.26,8.51-3.88,8.51-9.26Z"/><path class="cls-1" d="m297.42,69.61l6.77-17.77-15.53-35.17h12.32l9.26,23.08,9.19-23.08h12.4l-22.22,52.95h-12.17Z"/></g></svg>