<?xml version="1.0" encoding="utf-8"?>
<svg xmlns="http://www.w3.org/2000/svg" fill="none" height="290" viewBox="0 0 290 290" width="290">
<path d="M263.403 124.888L234.453 108.19V51.6727C234.453 49.2025 232.477 47.2264 230.007 47.2264C229.216 47.2264 228.524 47.424 227.833 47.8193L192.954 67.8769C191.077 68.9638 188.607 68.2721 187.52 66.3948C187.125 65.802 187.026 65.1103 187.026 64.4187V23.9082C187.026 21.438 185.05 19.4619 182.678 19.4619C181.987 19.4619 181.196 19.6595 180.603 19.9559L62.0362 83.1918C58.084 85.2668 55.6138 89.4166 55.6138 93.8629V108.091L26.6636 124.888C21.7233 127.753 18.5615 133.089 18.5615 138.82V173.402C18.5615 179.133 21.6245 184.468 26.6636 187.333L55.6138 204.032V214.011C55.6138 218.853 58.1828 223.299 62.3326 225.67L135.054 267.86C141.081 271.417 148.59 271.417 154.617 267.86L227.734 225.67C231.884 223.299 234.453 218.853 234.453 214.011V204.032L263.403 187.333C268.343 184.468 271.406 179.133 271.406 173.402V138.82C271.406 133.089 268.343 127.753 263.403 124.888ZM55.515 181.01L39.3108 171.722C37.5323 170.734 36.4454 168.857 36.4454 166.782V143.859C36.4454 141.784 37.5323 139.907 39.3108 138.918L55.515 129.532V181.01ZM195.326 179.33V222.805L157.285 244.839C149.578 249.285 139.994 249.285 132.189 244.839L93.8517 222.805V179.33L73.9917 167.572V118.861L96.3219 106.016C103.041 102.163 111.34 102.163 118.059 106.016L144.836 121.529L171.612 106.016C178.331 102.163 186.631 102.163 193.349 106.016L215.68 118.861L215.877 167.572L195.326 179.33ZM253.424 166.782C253.424 168.857 252.337 170.734 250.558 171.722L234.354 181.109V129.631L250.558 139.017C252.337 140.005 253.424 141.883 253.424 143.958V166.782ZM128.137 145.736C128.137 152.751 122.506 158.383 115.49 158.383C108.475 158.383 102.843 152.751 102.843 145.736C102.843 138.721 108.475 133.089 115.49 133.089C122.506 133.089 128.137 138.721 128.137 145.736ZM174.379 133.089C167.363 133.089 161.732 138.721 161.732 145.736C161.732 152.751 167.363 158.383 174.379 158.383C181.394 158.383 187.026 152.751 187.026 145.736C187.026 138.721 181.394 133.089 174.379 133.089ZM170.624 194.448L170.525 194.546C154.716 203.834 135.054 203.933 119.245 194.645C117.17 193.459 114.502 194.151 113.317 196.226C112.921 196.918 112.724 197.609 112.724 198.4V208.972L117.664 211.936C134.461 221.817 155.309 221.718 172.106 211.837L177.145 208.873V198.301C177.145 195.93 175.268 193.953 172.798 193.953C172.007 193.855 171.316 194.052 170.624 194.448Z" fill="#86899A"/>
</svg>