<?xml version="1.0" encoding="utf-8"?>
<svg xmlns="http://www.w3.org/2000/svg" width="48" height="48" viewBox="0 0 48 48" fill="none">
<path fill-rule="evenodd" clip-rule="evenodd" d="M45.9123 28.8943C45.9123 29.8855 45.3818 30.8084 44.5091 31.304L39.4952 34.1923V35.9184C39.4952 36.7558 39.0503 37.5249 38.3316 37.9351L25.6684 45.2326C24.6246 45.8308 23.3241 45.8308 22.2802 45.2326L9.68556 37.9351C8.96684 37.5249 8.52192 36.7558 8.52192 35.9184V34.1923L3.50802 31.304C2.65241 30.8084 2.10481 29.8855 2.10481 28.8943V22.9127C2.10481 21.9215 2.63529 20.9986 3.49091 20.503L8.50481 17.5976V15.1366C8.50481 14.3676 8.93262 13.6498 9.61711 13.2909L30.169 2.35308C30.6824 2.07964 31.2984 2.45563 31.2813 3.01961V10.0266C31.2813 10.5564 31.846 10.8811 32.308 10.6248L38.3487 7.15546C38.862 6.86492 39.4952 7.22382 39.4952 7.82198V17.5976L44.5091 20.4859C45.3818 20.9815 45.9123 21.9044 45.9123 22.8956V28.8943ZM5.21925 27.7493V23.7843C5.21925 23.4425 5.40749 23.1178 5.71551 22.964L8.52192 21.3404V30.2273L5.71551 28.6038C5.40749 28.4158 5.21925 28.0911 5.21925 27.7493ZM39.4952 21.3233L42.3016 22.9469C42.6096 23.1178 42.7979 23.4425 42.7979 23.7672V27.7322C42.7979 28.0911 42.6096 28.4158 42.3016 28.5867L39.4952 30.2103V21.3233ZM28.646 17.2387C29.8096 16.5722 31.2471 16.5722 32.4107 17.2387L36.2781 19.4434L36.3123 27.8689L32.7529 29.9026V37.4394L26.1647 41.2506C24.8128 42.0196 23.1701 42.0196 21.8182 41.2506L15.1786 37.4394V29.9026L11.739 27.886V19.4605L15.6064 17.2387C16.7701 16.5722 18.2075 16.5722 19.3711 17.2387L24.0086 19.9219L28.646 17.2387Z" fill="#1C3FFF"/>
<path d="M29.5872 35.0126L28.7144 35.5253C25.8053 37.2344 22.1947 37.2344 19.2856 35.5424L18.4299 35.0297V33.2181C18.4299 32.6371 19.0631 32.2782 19.5594 32.5687C22.2973 34.1752 25.7027 34.1752 28.4406 32.5516L28.4578 32.5345C28.954 32.244 29.5872 32.6029 29.5872 33.184V35.0126Z" fill="#1C3FFF"/>
<path d="M16.7187 24.109C16.7187 22.8956 17.6941 21.9215 18.9091 21.9215C20.1241 21.9215 21.0995 22.8956 21.0995 24.109C21.0995 25.3224 20.1241 26.2966 18.9091 26.2966C17.6941 26.2966 16.7187 25.3053 16.7187 24.109Z" fill="#1C3FFF"/>
<path d="M29.108 26.2966C27.8931 26.2966 26.9176 25.3224 26.9176 24.109C26.9176 22.8956 27.8931 21.9215 29.108 21.9215C30.323 21.9215 31.2984 22.8956 31.2984 24.109C31.2984 25.3053 30.323 26.2966 29.108 26.2966Z" fill="#1C3FFF"/>
<path d="M5.21925 23.7843V27.7493C5.21925 28.0911 5.40749 28.4158 5.71551 28.6038L8.52192 30.2273V21.3404L5.71551 22.964C5.40749 23.1178 5.21925 23.4425 5.21925 23.7843ZM42.3016 22.9469L39.4952 21.3233V30.2103L42.3016 28.5867C42.6096 28.4158 42.7979 28.0911 42.7979 27.7322V23.7672C42.7979 23.4425 42.6096 23.1178 42.3016 22.9469ZM45.57 18.6914L42.1134 16.7089L41.6 16.4184V7.85616C41.6 6.28385 40.3166 5.00208 38.7422 5.00208C38.246 5.00208 37.7497 5.1388 37.3219 5.37806L34.9262 6.74529L33.3861 7.63398V5.85659V3.05379C33.3861 2.28472 33.061 1.53275 32.5134 1.00295C31.9829 0.490242 31.2813 0.199707 30.5283 0.199707C30.0663 0.199707 29.6043 0.319339 29.1936 0.541513L8.64171 11.4793C7.27273 12.2142 6.43422 13.6156 6.43422 15.1708V16.4184L5.92086 16.7089L2.44706 18.6914C0.941176 19.563 0 21.1695 0 22.9127V28.8943C0 30.6375 0.941176 32.244 2.44706 33.1156L5.90374 35.1152L6.41711 35.4057V35.9868C6.43422 37.542 7.27273 38.9776 8.6246 39.7637L21.2193 47.0613C22.0578 47.5398 22.9989 47.7962 23.9743 47.7962C24.9326 47.7962 25.8738 47.5398 26.7123 47.0613L39.3754 39.7637C40.7273 38.9947 41.5658 37.542 41.5829 35.9868V35.4057L42.0963 35.1152L45.5529 33.1156C47.0588 32.244 48 30.6375 48 28.8943V22.9127C48 21.1695 47.0759 19.563 45.57 18.6914ZM45.9123 28.8943C45.9123 29.8855 45.3818 30.8084 44.5091 31.304L39.4952 34.1923V35.9184C39.4952 36.7558 39.0503 37.5249 38.3316 37.9351L25.6684 45.2326C24.6246 45.8308 23.3241 45.8308 22.2802 45.2326L9.68556 37.9351C8.96684 37.5249 8.52192 36.7558 8.52192 35.9184V34.1923L3.50802 31.304C2.65241 30.8084 2.10481 29.8855 2.10481 28.8943V22.9127C2.10481 21.9215 2.63529 20.9986 3.49091 20.503L8.50481 17.5976V15.1366C8.50481 14.3676 8.93262 13.6498 9.61711 13.2909L30.169 2.35308C30.6824 2.07964 31.2984 2.45563 31.2813 3.01961V10.0266C31.2813 10.5564 31.846 10.8811 32.308 10.6248L38.3487 7.15546C38.862 6.86492 39.4952 7.22382 39.4952 7.82198V17.5976L44.5091 20.4859C45.3818 20.9815 45.9123 21.9044 45.9123 22.8956V28.8943ZM32.4107 17.2387C31.2471 16.5722 29.8096 16.5722 28.646 17.2387L24.0086 19.9219L19.3711 17.2387C18.2075 16.5722 16.7701 16.5722 15.6064 17.2387L11.739 19.4605V27.886L15.1786 29.9026V37.4394L21.8182 41.2506C23.1701 42.0196 24.8128 42.0196 26.1647 41.2506L32.7529 37.4394V29.9026L36.3123 27.8689L36.2781 19.4434L32.4107 17.2387ZM16.7187 24.109C16.7187 22.8956 17.6941 21.9215 18.9091 21.9215C20.1241 21.9215 21.0995 22.8956 21.0995 24.109C21.0995 25.3224 20.1241 26.2966 18.9091 26.2966C17.6941 26.2966 16.7187 25.3053 16.7187 24.109ZM29.5872 35.0126L28.7144 35.5253C25.8053 37.2344 22.1947 37.2344 19.2856 35.5424L18.4299 35.0297V33.2181C18.4299 32.6371 19.0631 32.2782 19.5594 32.5687C22.2973 34.1752 25.7027 34.1752 28.4406 32.5516L28.4578 32.5345C28.954 32.244 29.5872 32.6029 29.5872 33.184V35.0126ZM29.108 26.2966C27.8931 26.2966 26.9176 25.3224 26.9176 24.109C26.9176 22.8956 27.8931 21.9215 29.108 21.9215C30.323 21.9215 31.2984 22.8956 31.2984 24.109C31.2984 25.3053 30.323 26.2966 29.108 26.2966Z" fill="white"/>
</svg>